<svg width="37" height="38" viewBox="0 0 37 38" fill="none" xmlns="http://www.w3.org/2000/svg">
<ellipse cx="18.5" cy="19" rx="18.5" ry="18.8627" fill="url(#paint0_linear_102_215)"/>
<path d="M19.1346 8.35952C19.1346 7.80859 18.688 7.36197 18.1371 7.36197C17.5862 7.36197 17.1395 7.80859 17.1395 8.35952L17.1395 18.0025H7.49657C6.94564 18.0025 6.49902 18.4491 6.49902 19C6.49902 19.551 6.94564 19.9976 7.49657 19.9976H17.1395V29.6406C17.1395 30.1915 17.5862 30.6381 18.1371 30.6381C18.688 30.6381 19.1346 30.1915 19.1346 29.6406V19.9976H28.7776C29.3285 19.9976 29.7752 19.551 29.7752 19C29.7752 18.4491 29.3285 18.0025 28.7776 18.0025H19.1346L19.1346 8.35952Z" fill="#FAFAFA"/>
<defs>
<linearGradient id="paint0_linear_102_215" x1="18.5" y1="0.137268" x2="18.5" y2="37.8628" gradientUnits="userSpaceOnUse">
<stop stop-color="#E51414"/>
<stop offset="1" stop-color="#AB0A0A"/>
</linearGradient>
</defs>
</svg>
