<svg width="40" height="32" viewBox="0 0 40 32" fill="none" xmlns="http://www.w3.org/2000/svg">
<path opacity="0.5" fill-rule="evenodd" clip-rule="evenodd" d="M0 9.49841C0 4.25259 4.25258 0 9.49841 0H29.8159C35.0617 0 39.3143 4.25259 39.3143 9.49841C39.3143 11.0193 38.4421 12.4054 37.071 13.0635L36.1798 13.4913C34.0751 14.5016 34.0751 17.4984 36.1798 18.5087L37.071 18.9365C38.4421 19.5946 39.3143 20.9807 39.3143 22.5016C39.3143 27.7474 35.0617 32 29.8159 32H9.49841C4.25258 32 0 27.7474 0 22.5016C0 20.9807 0.872194 19.5946 2.2433 18.9365L3.13449 18.5087C5.23922 17.4984 5.23922 14.5016 3.13449 13.4913L2.2433 13.0635C0.872192 12.4054 0 11.0193 0 9.49841ZM9.49841 2.74286C5.76742 2.74286 2.74286 5.76742 2.74286 9.49841C2.74286 9.96442 3.0101 10.3891 3.43022 10.5908L4.32141 11.0186C8.50072 13.0246 8.50073 18.9754 4.32141 20.9814L3.43022 21.4092C3.0101 21.6109 2.74286 22.0356 2.74286 22.5016C2.74286 26.2326 5.76742 29.2571 9.49841 29.2571H29.8159C33.5469 29.2571 36.5714 26.2326 36.5714 22.5016C36.5714 22.0356 36.3042 21.6109 35.8841 21.4092L34.9929 20.9814C30.8136 18.9754 30.8136 13.0246 34.9929 11.0186L35.8841 10.5908C36.3042 10.3891 36.5714 9.96442 36.5714 9.49841C36.5714 5.76742 33.5469 2.74286 29.8159 2.74286H9.49841ZM17.3887 7.12538H16.4429V8.77966C14.4162 8.77966 12.772 10.3164 12.772 12.212H16.4429H18.1472V7.83561C18.1485 7.44298 17.8074 7.12538 17.3887 7.12538ZM21.8181 8.99473C23.9505 9.45863 27.3257 10.9291 27.3257 15.5819C27.3257 21.0836 23.295 22.1352 21.7538 22.3353V24.5885H20.8629C20.4134 24.5885 20.0495 24.2484 20.0495 23.8283V22.3828H18.1472V23.7257C18.1472 24.2021 17.7338 24.5885 17.2241 24.5885H16.4429V22.3828H12.772V18.9517C12.772 17.0573 14.4162 15.5206 16.4415 15.5206V18.9179L20.3024 18.9467C20.8308 18.9504 21.3552 18.8379 21.8221 18.6078C22.6568 18.1952 23.719 17.3274 23.719 15.5806C23.719 12.2108 20.1137 12.2108 20.1137 12.2108V11.5368V8.77966V7.72307C20.1137 7.39296 20.4 7.12538 20.7532 7.12538H21.8181V8.99473Z" fill="white"/>
</svg>
