<svg width="29" height="34" viewBox="0 0 29 34" fill="none" xmlns="http://www.w3.org/2000/svg">
<path d="M15.5357 12.6616C17.0721 12.3952 18.4548 11.5463 19.41 10.2833C20.3651 9.02025 20.8228 7.4352 20.6925 5.84223C20.5622 4.24927 19.8534 2.76465 18.7064 1.68259C17.5595 0.600534 16.0582 0 14.5 0C12.9418 0 11.4405 0.600534 10.2936 1.68259C9.14664 2.76465 8.43779 4.24927 8.30748 5.84223C8.17718 7.4352 8.63494 9.02025 9.59005 10.2833C10.5452 11.5463 11.9279 12.3952 13.4643 12.6616V19.1241H9.32143C8.49736 19.1241 7.70705 19.46 7.12435 20.0578C6.54164 20.6556 6.21429 21.4664 6.21429 22.3118V23.3744H22.7857V22.3118C22.7857 21.4664 22.4584 20.6556 21.8757 20.0578C21.2929 19.46 20.5026 19.1241 19.6786 19.1241H15.5357V12.6616ZM0 29.7497C0 28.6225 0.436478 27.5414 1.21341 26.7444C1.99035 25.9473 3.0441 25.4995 4.14286 25.4995H24.8571C25.9559 25.4995 27.0096 25.9473 27.7866 26.7444C28.5635 27.5414 29 28.6225 29 29.7497V32.9374C29 33.2192 28.8909 33.4895 28.6966 33.6888C28.5024 33.8881 28.239 34 27.9643 34H1.03571C0.761026 34 0.497588 33.8881 0.303354 33.6888C0.10912 33.4895 0 33.2192 0 32.9374V29.7497Z" fill="white"/>
</svg>
