<svg width="33" height="32" viewBox="0 0 33 32" fill="none" xmlns="http://www.w3.org/2000/svg">
<path d="M16.6084 0C15.8054 0 15.0153 0.88658 15.0153 2.14719C15.0153 3.40779 15.8054 4.29437 16.6084 4.29437C17.4114 4.29437 18.2015 3.40779 18.2015 2.14719C18.2015 0.88658 17.4114 0 16.6084 0ZM9.40833 0.206061L8.29332 0.763637C9.33865 2.85437 11.8514 4.69853 13.986 5.91979L14.9692 18.7013H15.985V11.5671H17.2318V18.7013H18.2476L19.2308 5.91979C21.3654 4.69853 23.8781 2.85437 24.9235 0.763637L23.8085 0.206061C22.4294 2.27706 20.6991 3.61025 18.8676 4.20745C18.3615 5.00641 17.5608 5.54113 16.6084 5.54113C15.656 5.54113 14.8553 5.00641 14.3492 4.20738C12.5177 3.61032 10.7874 2.27706 9.40833 0.206061ZM10.5824 19.9481V26.5974H0.608398V32H32.6084V29.9221H22.6344V19.9481H10.5824Z" fill="#8D8D8D"/>
</svg>
