<svg width="11" height="16" viewBox="0 0 11 16" fill="none" xmlns="http://www.w3.org/2000/svg">
<g id="Award 3">
<g id="Subtract">
<path d="M10.2977 5.85526C10.2977 8.66046 8.02362 10.9345 5.21842 10.9345C2.41322 10.9345 0.13916 8.66046 0.13916 5.85526C0.13916 3.05006 2.41322 0.776001 5.21842 0.776001C8.02362 0.776001 10.2977 3.05006 10.2977 5.85526Z" fill="#014B2C"/>
<path d="M9.28183 10.3984C8.20349 11.3635 6.77949 11.9504 5.21842 11.9504C3.65735 11.9504 2.23335 11.3635 1.15501 10.3984V13.5613C1.15501 14.6206 1.15501 15.1503 1.49294 15.3014C1.83087 15.4526 2.24442 15.1079 3.07154 14.4185L3.70732 13.8885C4.4284 13.2875 4.78895 12.987 5.21842 12.987C5.64789 12.987 6.00844 13.2875 6.72953 13.8885L7.36531 14.4185C8.19242 15.1079 8.60598 15.4526 8.94391 15.3014C9.28183 15.1503 9.28183 14.6206 9.28183 13.5613V10.3984Z" fill="#014B2C"/>
</g>
</g>
</svg>
