<svg width="54" height="54" viewBox="0 0 54 54" fill="none" xmlns="http://www.w3.org/2000/svg">
<g clip-path="url(#clip0_263_133)">
<path fill-rule="evenodd" clip-rule="evenodd" d="M27 0.5625C20.4267 0.5625 14.999 5.46412 14.1717 11.8125L12.6809 11.8125C10.4406 11.8124 8.58278 11.8124 7.12476 12.0161C5.59197 12.2303 4.21466 12.7032 3.16722 13.8734C2.11978 15.0437 1.80188 16.4648 1.75829 18.0119C1.71682 19.4835 1.92204 21.3299 2.1695 23.5565L2.86226 29.7912C3.37983 34.4496 3.78631 38.1082 4.47673 40.9518C5.1844 43.8665 6.23693 46.1412 8.19094 47.8901C10.1468 49.6407 12.5352 50.4346 15.5263 50.8156C18.4466 51.1875 22.1549 51.1875 26.8795 51.1875H27.1204C31.845 51.1875 35.5534 51.1875 38.4737 50.8156C41.4649 50.4346 43.8532 49.6407 45.8091 47.8901C47.7631 46.1412 48.8156 43.8665 49.5233 40.9518C50.2137 38.1082 50.6202 34.4498 51.1377 29.7916L51.8305 23.5564C52.078 21.3299 52.2832 19.4834 52.2417 18.0119C52.1981 16.4648 51.8802 15.0437 50.8328 13.8734C49.7854 12.7032 48.408 12.2303 46.8753 12.0161C45.4172 11.8124 43.5594 11.8124 41.3191 11.8125L39.8284 11.8125C39.0016 5.46465 33.5733 0.5625 27 0.5625ZM27 3.9375C31.7054 3.9375 35.6171 7.33611 36.4141 11.8125H17.5858C18.3825 7.33658 22.2946 3.9375 27 3.9375ZM15.7501 24.75C16.9927 24.75 18.0001 23.7426 18.0001 22.5C18.0001 21.2574 16.9927 20.25 15.7501 20.25C14.5074 20.25 13.5001 21.2574 13.5001 22.5C13.5001 23.7426 14.5074 24.75 15.7501 24.75ZM38.2501 24.75C39.4927 24.75 40.5001 23.7426 40.5001 22.5C40.5001 21.2574 39.4927 20.25 38.2501 20.25C37.0074 20.25 36.0001 21.2574 36.0001 22.5C36.0001 23.7426 37.0074 24.75 38.2501 24.75Z" fill="#178FDE"/>
</g>
<defs>
<clipPath id="clip0_263_133">
<rect width="54" height="54" fill="white"/>
</clipPath>
</defs>
</svg>
