<svg width="67" height="35" viewBox="0 0 67 35" fill="none" xmlns="http://www.w3.org/2000/svg">
<path fill-rule="evenodd" clip-rule="evenodd" d="M17.4783 0C7.82529 0 0 7.82528 0 17.4783C0 27.1312 7.82529 34.9565 17.4783 34.9565H49.5217C59.1747 34.9565 67 27.1312 67 17.4783C67 7.82528 59.1747 0 49.5217 0H17.4783ZM13.1091 10.1958C13.1091 8.58696 14.4133 7.28275 16.0222 7.28275C17.631 7.28275 18.9352 8.58696 18.9352 10.1958V14.5649H23.3046C24.9135 14.5649 26.2177 15.8691 26.2177 17.4779C26.2177 19.0868 24.9135 20.391 23.3046 20.391H18.9352V24.761C18.9352 26.3698 17.631 27.6741 16.0222 27.6741C14.4133 27.6741 13.1091 26.3698 13.1091 24.761V20.391H8.73942C7.13059 20.391 5.82638 19.0868 5.82638 17.4779C5.82638 15.8691 7.13059 14.5649 8.73942 14.5649H13.1091V10.1958ZM48.0655 27.6741C51.2832 27.6741 53.8916 25.0657 53.8916 21.848C53.8916 18.6304 51.2832 16.0219 48.0655 16.0219C44.8479 16.0219 42.2394 18.6304 42.2394 21.848C42.2394 25.0657 44.8479 27.6741 48.0655 27.6741ZM61.1741 13.1088C61.1741 15.522 59.2177 17.4783 56.8045 17.4783C54.3913 17.4783 52.4349 15.522 52.4349 13.1088C52.4349 10.6955 54.3913 8.7392 56.8045 8.7392C59.2177 8.7392 61.1741 10.6955 61.1741 13.1088Z" fill="white"/>
</svg>
